<?xml version="1.0" standalone="no"?>
<!DOCTYPE svg PUBLIC "-//W3C//DTD SVG 20010904//EN"
 "http://www.w3.org/TR/2001/REC-SVG-20010904/DTD/svg10.dtd">
<svg version="1.0" xmlns="http://www.w3.org/2000/svg"
 width="700.000000pt" height="700.000000pt" viewBox="0 0 700.000000 700.000000"
 preserveAspectRatio="xMidYMid meet">
<metadata>
Created by potrace 1.11, written by Peter Selinger 2001-2013
</metadata>
<g transform="translate(0.000000,700.000000) scale(0.100000,-0.100000)"
fill="#000000" stroke="none">
<path d="M3347 6984 c-1 -2 -47 -5 -102 -8 -55 -3 -116 -7 -135 -10 -19 -3
-86 -12 -149 -21 -500 -70 -1007 -271 -1446 -572 -94 -65 -225 -164 -261 -198
-6 -5 -43 -39 -83 -74 -223 -198 -462 -478 -611 -715 -68 -108 -180 -307 -196
-346 -7 -18 -37 -84 -63 -142 -55 -121 -152 -401 -177 -513 -1 -5 -9 -37 -17
-70 -9 -33 -19 -80 -22 -105 -4 -24 -8 -47 -11 -51 -2 -3 -5 -21 -8 -40 -2
-19 -10 -68 -16 -109 -18 -122 -19 -130 -26 -250 -12 -187 -6 -519 10 -620 3
-14 7 -47 11 -75 5 -44 24 -158 41 -250 3 -16 16 -75 30 -130 134 -534 380
-1011 739 -1429 231 -270 546 -536 840 -709 44 -26 87 -52 95 -57 23 -15 297
-150 304 -150 3 0 29 -11 58 -25 155 -72 504 -175 710 -210 18 -3 40 -7 48
-10 8 -2 40 -6 70 -10 30 -3 66 -7 80 -9 168 -28 732 -28 840 -1 8 2 43 7 77
10 50 5 179 30 363 71 248 54 665 229 941 396 292 177 587 424 802 673 33 39
63 72 67 75 3 3 44 55 90 115 218 287 384 593 508 935 36 98 98 309 107 359 3
19 7 37 9 40 2 3 7 22 10 41 6 36 11 65 21 110 9 41 12 62 19 115 4 28 9 66
11 85 27 201 27 675 0 843 -2 12 -6 42 -9 67 -7 53 -13 87 -27 156 -5 28 -12
64 -15 80 -3 16 -16 72 -30 124 -13 52 -26 102 -28 110 -10 40 -78 236 -111
320 -80 206 -238 501 -363 680 -61 87 -153 211 -172 231 -8 9 -37 43 -65 75
-71 84 -276 289 -370 369 -111 95 -272 213 -419 307 -111 71 -351 196 -481
250 -154 64 -426 154 -522 173 -10 1 -36 8 -58 13 -22 6 -53 14 -70 16 -102
19 -207 36 -250 41 -27 4 -60 8 -72 10 -74 12 -507 27 -516 19z"/>
</g>
</svg>
