<?xml version="1.0" ?><!DOCTYPE svg  PUBLIC '-//W3C//DTD SVG 1.1//EN'  'http://www.w3.org/Graphics/SVG/1.1/DTD/svg11.dtd'><svg height="512px" style="enable-background:new 0 0 512 512;" version="1.1" viewBox="0 0 512 512" width="512px" xml:space="preserve" xmlns="http://www.w3.org/2000/svg" xmlns:xlink="http://www.w3.org/1999/xlink"><g id="_x31_8-tripadvisor_x2C__travel"><g><path d="M333.061,189.89c-45.937-27.665-103.406-27.665-149.338,0c41.947,4.822,74.668,40.031,74.668,82.999    C258.391,229.921,291.11,194.712,333.061,189.89z"/><path d="M174.493,210.01c-34.605,0-62.919,28.295-62.919,62.879c0,34.58,28.313,62.872,62.919,62.872    c34.608,0,62.922-28.292,62.922-62.872C237.415,238.305,209.102,210.01,174.493,210.01z M174.493,314.806    c-23.131,0-41.947-18.801-41.947-41.917c0-23.121,18.816-41.923,41.947-41.923c23.138,0,41.95,18.802,41.95,41.923    C216.443,296.005,197.631,314.806,174.493,314.806z"/><path d="M342.287,251.929c-11.577,0-20.972,9.412-20.972,20.96c0,11.547,9.395,20.954,20.972,20.954    c11.58,0,20.975-9.407,20.975-20.954C363.262,261.341,353.867,251.929,342.287,251.929z M342.287,283.364    c-5.792,0-10.489-4.69-10.489-10.476c0-5.789,4.697-10.481,10.489-10.481c5.791,0,10.486,4.692,10.486,10.481    C352.773,278.674,348.078,283.364,342.287,283.364z"/><path d="M174.493,251.929c-11.557,0-20.972,9.412-20.972,20.96c0,11.547,9.415,20.954,20.972,20.954s20.974-9.407,20.974-20.954    C195.467,261.341,186.05,251.929,174.493,251.929z M174.493,283.364c-5.79,0-10.486-4.69-10.486-10.476    c0-5.789,4.696-10.481,10.486-10.481c5.793,0,10.49,4.692,10.49,10.481C184.983,278.674,180.286,283.364,174.493,283.364z"/><path d="M376,16H136C69.726,16,16,69.726,16,136v240c0,66.274,53.726,120,120,120h240c66.274,0,120-53.726,120-120V136    C496,69.726,442.274,16,376,16z M426.184,272.889c0,46.315-37.541,83.832-83.896,83.832c-27.475,0-51.596-13.414-66.906-33.74    l-16.15,33.74l-17.619-33.953c-15.309,20.539-39.638,33.953-67.118,33.953c-46.351,0-83.894-37.517-83.894-83.832    c0-19.912,7.13-37.959,18.875-52.215C104.02,205.372,90.6,189,90.6,189h59.145c62.713-54,154.578-54,217.292,0h59.147    c0,0-13.422,16.372-18.878,31.674C419.051,234.93,426.184,252.977,426.184,272.889z"/><path d="M342.287,210.01c-34.605,0-62.921,28.295-62.921,62.879c0,34.58,28.315,62.872,62.921,62.872    c34.609,0,62.922-28.292,62.922-62.872C405.209,238.305,376.896,210.01,342.287,210.01z M342.287,314.806    c-23.131,0-41.947-18.801-41.947-41.917c0-23.121,18.816-41.923,41.947-41.923c23.135,0,41.947,18.802,41.947,41.923    C384.234,296.005,365.422,314.806,342.287,314.806z"/></g></g><g id="Layer_1"/></svg>